M48
; DRILL file {KiCad 9.0.0} date 2025-03-28T09:16:54+0200
; FORMAT={-:-/ absolute / metric / decimal}
; #@! TF.CreationDate,2025-03-28T09:16:54+02:00
; #@! TF.GenerationSoftware,Kicad,Pcbnew,9.0.0
; #@! TF.FileFunction,Plated,1,2,PTH
FMAT,2
METRIC
; #@! TA.AperFunction,Plated,PTH,ViaDrill
T1C0.300
; #@! TA.AperFunction,Plated,PTH,ComponentDrill
T2C0.800
; #@! TA.AperFunction,Plated,PTH,ComponentDrill
T3C1.000
; #@! TA.AperFunction,Plated,PTH,ComponentDrill
T4C1.100
%
G90
G05
T1
X112.077Y-96.502
X117.552Y-95.589
X119.423Y-112.781
X119.427Y-117.111
X119.804Y-95.559
X120.46Y-108.418
X120.926Y-70.945
X122.2Y-92.754
X122.283Y-97.028
X124.791Y-110.392
X126.611Y-115.272
X126.693Y-96.601
X126.771Y-118.287
X127.07Y-83.746
X127.864Y-117.3
X128.69Y-77.886
X130.732Y-104.471
X131.722Y-118.446
X135.242Y-80.718
X136.429Y-83.873
X136.547Y-90.726
X137.042Y-97.562
X137.608Y-120.641
X137.609Y-114.567
X137.745Y-102.497
X137.978Y-116.014
X138.213Y-85.72
X138.549Y-117.196
X138.654Y-111.499
X138.957Y-104.734
X139.201Y-114.358
X140.519Y-100.638
X140.547Y-81.772
X140.634Y-84.733
X140.634Y-107.431
X140.908Y-92.24
X141.624Y-71.903
X141.741Y-76.837
X141.796Y-102.327
X141.831Y-109.611
X142.605Y-84.092
X142.614Y-88.68
X143.085Y-99.553
X143.605Y-112.366
X143.902Y-84.733
X144.227Y-75.851
X144.595Y-79.93
X144.595Y-104.471
X144.595Y-108.5
X144.595Y-113.353
X145.2Y-91.214
X145.279Y-80.92
X145.566Y-120.242
X146.38Y-116.958
X149.1Y-94.676
X149.192Y-112.385
X149.724Y-108.957
X151.526Y-82.759
X152.0Y-120.627
X152.323Y-98.211
X152.764Y-95.589
X152.823Y-94.602
X152.883Y-115.088
X154.345Y-96.575
X154.615Y-92.628
X155.354Y-116.484
X155.718Y-109.459
X155.985Y-116.742
X156.41Y-113.503
X156.477Y-112.366
X159.164Y-94.602
X159.611Y-89.394
X160.065Y-112.572
X160.438Y-72.89
X160.662Y-116.092
X160.714Y-108.686
X165.551Y-69.357
T3
X120.904Y-122.174
X120.904Y-124.714
X123.444Y-122.174
X123.444Y-124.714
X125.984Y-122.174
X125.984Y-124.714
X128.524Y-122.174
X128.524Y-124.714
X131.064Y-122.174
X131.064Y-124.714
X133.604Y-122.174
X133.604Y-124.714
X136.144Y-122.174
X136.144Y-124.714
X138.684Y-122.174
X138.684Y-124.714
X141.224Y-122.174
X141.224Y-124.714
X143.764Y-122.174
X143.764Y-124.714
X146.304Y-122.174
X146.304Y-124.714
X148.844Y-122.174
X148.844Y-124.714
X151.384Y-122.174
X151.384Y-124.714
X153.924Y-122.174
X153.924Y-124.714
X156.464Y-122.174
X156.464Y-124.714
X159.004Y-122.174
X159.004Y-124.714
T2
G00X124.199Y-69.74
M15
G01X124.199Y-69.14
M16
G05
G00X124.199Y-74.02
M15
G01X124.199Y-73.22
M16
G05
G00X132.849Y-69.74
M15
G01X132.849Y-69.14
M16
G05
G00X132.849Y-74.02
M15
G01X132.849Y-73.22
M16
G05
T4
G00X138.391Y-69.532
M15
G01X138.391Y-70.732
M16
G05
G00X143.091Y-69.532
M15
G01X143.091Y-70.732
M16
G05
G00X147.791Y-69.532
M15
G01X147.791Y-70.732
M16
G05
M30
