%TF.GenerationSoftware,KiCad,Pcbnew,9.0.0*%
%TF.CreationDate,2025-03-28T09:11:28+02:00*%
%TF.ProjectId,MM_PowerBoard_Draft,4d4d5f50-6f77-4657-9242-6f6172645f44,rev?*%
%TF.SameCoordinates,Original*%
%TF.FileFunction,Copper,L1,Top*%
%TF.FilePolarity,Positive*%
%FSLAX46Y46*%
G04 Gerber Fmt 4.6, Leading zero omitted, Abs format (unit mm)*
G04 Created by KiCad (PCBNEW 9.0.0) date 2025-03-28 09:11:28*
%MOMM*%
%LPD*%
G01*
G04 APERTURE LIST*
G04 Aperture macros list*
%AMRoundRect*
0 Rectangle with rounded corners*
0 $1 Rounding radius*
0 $2 $3 $4 $5 $6 $7 $8 $9 X,Y pos of 4 corners*
0 Add a 4 corners polygon primitive as box body*
4,1,4,$2,$3,$4,$5,$6,$7,$8,$9,$2,$3,0*
0 Add four circle primitives for the rounded corners*
1,1,$1+$1,$2,$3*
1,1,$1+$1,$4,$5*
1,1,$1+$1,$6,$7*
1,1,$1+$1,$8,$9*
0 Add four rect primitives between the rounded corners*
20,1,$1+$1,$2,$3,$4,$5,0*
20,1,$1+$1,$4,$5,$6,$7,0*
20,1,$1+$1,$6,$7,$8,$9,0*
20,1,$1+$1,$8,$9,$2,$3,0*%
G04 Aperture macros list end*
%TA.AperFunction,SMDPad,CuDef*%
%ADD10R,0.864008X0.806477*%
%TD*%
%TA.AperFunction,SMDPad,CuDef*%
%ADD11R,0.900000X0.800000*%
%TD*%
%TA.AperFunction,SMDPad,CuDef*%
%ADD12R,0.300000X0.600000*%
%TD*%
%TA.AperFunction,SMDPad,CuDef*%
%ADD13R,0.800000X0.900000*%
%TD*%
%TA.AperFunction,SMDPad,CuDef*%
%ADD14RoundRect,0.250000X1.500000X-0.250000X1.500000X0.250000X-1.500000X0.250000X-1.500000X-0.250000X0*%
%TD*%
%TA.AperFunction,SMDPad,CuDef*%
%ADD15RoundRect,0.250001X1.449999X-0.499999X1.449999X0.499999X-1.449999X0.499999X-1.449999X-0.499999X0*%
%TD*%
%TA.AperFunction,SMDPad,CuDef*%
%ADD16RoundRect,0.093750X0.106250X-0.093750X0.106250X0.093750X-0.106250X0.093750X-0.106250X-0.093750X0*%
%TD*%
%TA.AperFunction,HeatsinkPad*%
%ADD17R,1.600000X1.000000*%
%TD*%
%TA.AperFunction,SMDPad,CuDef*%
%ADD18R,0.806477X0.864008*%
%TD*%
%TA.AperFunction,SMDPad,CuDef*%
%ADD19R,1.500000X0.600000*%
%TD*%
%TA.AperFunction,SMDPad,CuDef*%
%ADD20R,2.100000X3.300000*%
%TD*%
%TA.AperFunction,SMDPad,CuDef*%
%ADD21RoundRect,0.093750X-0.106250X0.093750X-0.106250X-0.093750X0.106250X-0.093750X0.106250X0.093750X0*%
%TD*%
%TA.AperFunction,SMDPad,CuDef*%
%ADD22R,1.750000X0.450000*%
%TD*%
%TA.AperFunction,SMDPad,CuDef*%
%ADD23RoundRect,0.125000X0.537500X0.125000X-0.537500X0.125000X-0.537500X-0.125000X0.537500X-0.125000X0*%
%TD*%
%TA.AperFunction,SMDPad,CuDef*%
%ADD24RoundRect,0.250000X1.600000X-0.300000X1.600000X0.300000X-1.600000X0.300000X-1.600000X-0.300000X0*%
%TD*%
%TA.AperFunction,SMDPad,CuDef*%
%ADD25R,3.456007X1.282525*%
%TD*%
%TA.AperFunction,ComponentPad*%
%ADD26O,1.200000X2.000000*%
%TD*%
%TA.AperFunction,ComponentPad*%
%ADD27O,1.200000X1.800000*%
%TD*%
%TA.AperFunction,SMDPad,CuDef*%
%ADD28R,0.300000X1.300000*%
%TD*%
%TA.AperFunction,SMDPad,CuDef*%
%ADD29RoundRect,0.150000X0.512500X0.150000X-0.512500X0.150000X-0.512500X-0.150000X0.512500X-0.150000X0*%
%TD*%
%TA.AperFunction,SMDPad,CuDef*%
%ADD30RoundRect,0.150000X0.587500X0.150000X-0.587500X0.150000X-0.587500X-0.150000X0.587500X-0.150000X0*%
%TD*%
%TA.AperFunction,SMDPad,CuDef*%
%ADD31O,0.800000X0.280000*%
%TD*%
%TA.AperFunction,SMDPad,CuDef*%
%ADD32O,0.280000X0.800000*%
%TD*%
%TA.AperFunction,SMDPad,CuDef*%
%ADD33R,1.700000X1.700000*%
%TD*%
%TA.AperFunction,SMDPad,CuDef*%
%ADD34R,1.701016X1.207518*%
%TD*%
%TA.AperFunction,ComponentPad*%
%ADD35O,1.800000X3.000000*%
%TD*%
%TA.AperFunction,SMDPad,CuDef*%
%ADD36O,2.037998X0.573990*%
%TD*%
%TA.AperFunction,SMDPad,CuDef*%
%ADD37R,1.485014X1.727991*%
%TD*%
%TA.AperFunction,ComponentPad*%
%ADD38R,1.700000X1.700000*%
%TD*%
%TA.AperFunction,ComponentPad*%
%ADD39O,1.700000X1.700000*%
%TD*%
%TA.AperFunction,ViaPad*%
%ADD40C,0.600000*%
%TD*%
%TA.AperFunction,ViaPad*%
%ADD41C,0.500000*%
%TD*%
%TA.AperFunction,Conductor*%
%ADD42C,0.200000*%
%TD*%
G04 APERTURE END LIST*
D10*
%TO.P,R17,1*%
%TO.N,/VBUS*%
X123151000Y-75720034D03*
%TO.P,R17,2*%
%TO.N,Net-(U1-VDD)*%
X123151000Y-77226766D03*
%TD*%
D11*
%TO.P,C2,1*%
%TO.N,/Out*%
X143471000Y-104298025D03*
%TO.P,C2,2*%
%TO.N,GND*%
X143471000Y-102897975D03*
%TD*%
D12*
%TO.P,IC2,1,FB*%
%TO.N,Net-(IC2-FB)*%
X140531800Y-102632013D03*
%TO.P,IC2,2,EN*%
%TO.N,/Out*%
X140031927Y-102632013D03*
%TO.P,IC2,3,VIN*%
X139531800Y-102632013D03*
%TO.P,IC2,4,GND*%
%TO.N,GND*%
X139531800Y-104131987D03*
%TO.P,IC2,5,SW*%
%TO.N,Net-(IC2-SW)*%
X140031927Y-104131987D03*
%TO.P,IC2,6,VOUT*%
%TO.N,/5V*%
X140531800Y-104131987D03*
%TD*%
D13*
%TO.P,C10,1*%
%TO.N,GND*%
X153246975Y-98326000D03*
%TO.P,C10,2*%
%TO.N,/5V*%
X154647025Y-98326000D03*
%TD*%
D11*
%TO.P,C3,1*%
%TO.N,/Out*%
X162267000Y-109378025D03*
%TO.P,C3,2*%
%TO.N,GND*%
X162267000Y-107977975D03*
%TD*%
D14*
%TO.P,J1,1,Pin_1*%
%TO.N,/Sense_-*%
X166568000Y-72374000D03*
%TO.P,J1,2,Pin_2*%
%TO.N,GND*%
X166568000Y-70374000D03*
D15*
%TO.P,J1,MP*%
%TO.N,N/C*%
X172318000Y-74724000D03*
X172318000Y-68024000D03*
%TD*%
D16*
%TO.P,U2,1,VOUT*%
%TO.N,/EXT_LOAD1_OUT*%
X120316000Y-97915500D03*
%TO.P,U2,2,QOD*%
%TO.N,Net-(U2-QOD)*%
X120966000Y-97915500D03*
%TO.P,U2,3,CT*%
%TO.N,Net-(U2-CT)*%
X121616000Y-97915500D03*
%TO.P,U2,4,GND*%
%TO.N,GND*%
X121616000Y-96140500D03*
%TO.P,U2,5,EN/UVLO*%
%TO.N,/CTRL_EXT_LOAD1*%
X120966000Y-96140500D03*
%TO.P,U2,6,VIN*%
%TO.N,/5V*%
X120316000Y-96140500D03*
D17*
%TO.P,U2,7,GND*%
%TO.N,GND*%
X120966000Y-97028000D03*
%TD*%
D18*
%TO.P,R9,1*%
%TO.N,/EXT_LOAD2_OUT*%
X155391766Y-89182000D03*
%TO.P,R9,2*%
%TO.N,Net-(U5-QOD)*%
X153885034Y-89182000D03*
%TD*%
D10*
%TO.P,R5,1*%
%TO.N,Net-(U8-ISET)*%
X143725000Y-89707234D03*
%TO.P,R5,2*%
%TO.N,GND*%
X143725000Y-91213966D03*
%TD*%
D13*
%TO.P,C16,1*%
%TO.N,/Out*%
X147404975Y-108740000D03*
%TO.P,C16,2*%
%TO.N,GND*%
X148805025Y-108740000D03*
%TD*%
D11*
%TO.P,C14,1*%
%TO.N,Net-(U1-VDD)*%
X121881000Y-72548025D03*
%TO.P,C14,2*%
%TO.N,GND*%
X121881000Y-71147975D03*
%TD*%
%TO.P,C12,1*%
%TO.N,/EXT_LOAD2_OUT*%
X158203000Y-93369975D03*
%TO.P,C12,2*%
%TO.N,GND*%
X158203000Y-94770025D03*
%TD*%
D10*
%TO.P,R6,1*%
%TO.N,Net-(U8-ISET)*%
X143725000Y-93771234D03*
%TO.P,R6,2*%
%TO.N,Net-(Q2-D)*%
X143725000Y-95277966D03*
%TD*%
D18*
%TO.P,R12,1*%
%TO.N,/5V*%
X140913766Y-106454000D03*
%TO.P,R12,2*%
%TO.N,Net-(IC2-FB)*%
X139407034Y-106454000D03*
%TD*%
D10*
%TO.P,R16,1*%
%TO.N,/VBUS*%
X133311000Y-75737234D03*
%TO.P,R16,2*%
%TO.N,Net-(U1-VBUS)*%
X133311000Y-77243966D03*
%TD*%
%TO.P,R11,1*%
%TO.N,/FAST_CHARGE_CTRL*%
X135597000Y-97292766D03*
%TO.P,R11,2*%
%TO.N,Net-(Q2-G)*%
X135597000Y-95786034D03*
%TD*%
%TO.P,R3,1*%
%TO.N,GND*%
X137375000Y-84084766D03*
%TO.P,R3,2*%
%TO.N,Net-(U8-ILIM)*%
X137375000Y-82578034D03*
%TD*%
%TO.P,R4,1*%
%TO.N,Net-(U8-TS)*%
X135597000Y-89436034D03*
%TO.P,R4,2*%
%TO.N,GND*%
X135597000Y-90942766D03*
%TD*%
D13*
%TO.P,C6,1*%
%TO.N,/CHARGER_OUT*%
X137544025Y-80518000D03*
%TO.P,C6,2*%
%TO.N,GND*%
X136143975Y-80518000D03*
%TD*%
D19*
%TO.P,U1,1,VDD*%
%TO.N,Net-(U1-VDD)*%
X125484900Y-78038100D03*
%TO.P,U1,2,CFG2*%
%TO.N,unconnected-(U1-CFG2-Pad2)*%
X125484900Y-79038100D03*
%TO.P,U1,3,CFG3*%
%TO.N,unconnected-(U1-CFG3-Pad3)*%
X125484900Y-80038100D03*
%TO.P,U1,4,DP*%
%TO.N,Net-(U1-DM)*%
X125484900Y-81038100D03*
%TO.P,U1,5,DM*%
X125484900Y-82038100D03*
%TO.P,U1,6,CC2*%
%TO.N,/CC2*%
X131484900Y-82038100D03*
%TO.P,U1,7,CC1*%
%TO.N,/CC1*%
X131485100Y-81038100D03*
%TO.P,U1,8,VBUS*%
%TO.N,Net-(U1-VBUS)*%
X131485100Y-80038100D03*
%TO.P,U1,9,CFG1*%
%TO.N,Net-(U1-CFG1)*%
X131485100Y-79038100D03*
%TO.P,U1,10,PG*%
%TO.N,unconnected-(U1-PG-Pad10)*%
X131484900Y-78038100D03*
D20*
%TO.P,U1,11,GND*%
%TO.N,GND*%
X128485100Y-80038100D03*
%TD*%
D21*
%TO.P,U5,1,VOUT*%
%TO.N,/EXT_LOAD2_OUT*%
X154789000Y-93500000D03*
%TO.P,U5,2,QOD*%
%TO.N,Net-(U5-QOD)*%
X154139000Y-93500000D03*
%TO.P,U5,3,CT*%
%TO.N,Net-(U5-CT)*%
X153489000Y-93500000D03*
%TO.P,U5,4,GND*%
%TO.N,GND*%
X153489000Y-95275000D03*
%TO.P,U5,5,EN/UVLO*%
%TO.N,/CTRL_EXT_LOAD2*%
X154139000Y-95275000D03*
%TO.P,U5,6,VIN*%
%TO.N,/5V*%
X154789000Y-95275000D03*
D17*
%TO.P,U5,7,GND*%
%TO.N,GND*%
X154139000Y-94387500D03*
%TD*%
D13*
%TO.P,C5,1*%
%TO.N,/Out*%
X146558025Y-75946000D03*
%TO.P,C5,2*%
%TO.N,GND*%
X145157975Y-75946000D03*
%TD*%
%TO.P,C7,1*%
%TO.N,GND*%
X121288025Y-92964000D03*
%TO.P,C7,2*%
%TO.N,/5V*%
X119887975Y-92964000D03*
%TD*%
D22*
%TO.P,U3,1,AO1*%
%TO.N,/MOTOR1_A_OUT*%
X118027000Y-111261000D03*
%TO.P,U3,2,AO1*%
X118027000Y-111911000D03*
%TO.P,U3,3,PGND1*%
%TO.N,GND*%
X118027000Y-112561000D03*
%TO.P,U3,4,PGND1*%
X118027000Y-113211000D03*
%TO.P,U3,5,AO2*%
%TO.N,/MOTOR1_B_OUT*%
X118027000Y-113861000D03*
%TO.P,U3,6,AO2*%
X118027000Y-114511000D03*
%TO.P,U3,7,BO2*%
%TO.N,/MOTOR2_B_OUT*%
X118027000Y-115161000D03*
%TO.P,U3,8,BO2*%
X118027000Y-115811000D03*
%TO.P,U3,9,PGND2*%
%TO.N,GND*%
X118027000Y-116461000D03*
%TO.P,U3,10,PGND2*%
X118027000Y-117111000D03*
%TO.P,U3,11,BO1*%
%TO.N,/MOTOR2_A_OUT*%
X118027000Y-117761000D03*
%TO.P,U3,12,BO1*%
X118027000Y-118411000D03*
%TO.P,U3,13,VM2*%
%TO.N,/Out*%
X125227000Y-118411000D03*
%TO.P,U3,14,VM3*%
X125227000Y-117761000D03*
%TO.P,U3,15,PWMB*%
%TO.N,/MOTOR2_CTRL2*%
X125227000Y-117111000D03*
%TO.P,U3,16,BIN2*%
%TO.N,/MOTOR2_CTRL1*%
X125227000Y-116461000D03*
%TO.P,U3,17,BIN1*%
%TO.N,/CTRL2_INV*%
X125227000Y-115811000D03*
%TO.P,U3,18,GND*%
%TO.N,GND*%
X125227000Y-115161000D03*
%TO.P,U3,19,STBY*%
%TO.N,/3V3*%
X125227000Y-114511000D03*
%TO.P,U3,20,VCC*%
X125227000Y-113861000D03*
%TO.P,U3,21,AIN1*%
%TO.N,/CTRL1_INV*%
X125227000Y-113211000D03*
%TO.P,U3,22,AIN2*%
%TO.N,/MOTOR1_CTRL1*%
X125227000Y-112561000D03*
%TO.P,U3,23,PWMA*%
%TO.N,/MOTOR1_CTRL2*%
X125227000Y-111911000D03*
%TO.P,U3,24,VM1*%
%TO.N,/Out*%
X125227000Y-111261000D03*
%TD*%
D18*
%TO.P,R10,1*%
%TO.N,/EXT_LOAD2_OUT*%
X157187034Y-89182000D03*
%TO.P,R10,2*%
%TO.N,GND*%
X158693766Y-89182000D03*
%TD*%
D13*
%TO.P,C15,1*%
%TO.N,/Out*%
X122773025Y-108486000D03*
%TO.P,C15,2*%
%TO.N,GND*%
X121372975Y-108486000D03*
%TD*%
D23*
%TO.P,U7,1,IN+*%
%TO.N,/Sense_+*%
X159462000Y-117392000D03*
%TO.P,U7,2,IN-*%
%TO.N,/Sense_-*%
X159462000Y-116742000D03*
%TO.P,U7,3,GND*%
%TO.N,GND*%
X159462000Y-116092000D03*
%TO.P,U7,4,VS*%
%TO.N,/3V3*%
X159462000Y-115442000D03*
%TO.P,U7,5,SCL*%
%TO.N,/I2C1_SCL*%
X157187000Y-115442000D03*
%TO.P,U7,6,SDA*%
%TO.N,/I2C1_SDA*%
X157187000Y-116092000D03*
%TO.P,U7,7,A0*%
%TO.N,GND*%
X157187000Y-116742000D03*
%TO.P,U7,8,A1*%
X157187000Y-117392000D03*
%TD*%
D13*
%TO.P,C1,1*%
%TO.N,/HV*%
X140553025Y-85880000D03*
%TO.P,C1,2*%
%TO.N,GND*%
X139152975Y-85880000D03*
%TD*%
D11*
%TO.P,C11,1*%
%TO.N,Net-(U5-CT)*%
X150075000Y-93499975D03*
%TO.P,C11,2*%
%TO.N,GND*%
X150075000Y-94900025D03*
%TD*%
D24*
%TO.P,L1,1,1*%
%TO.N,/Out*%
X147027000Y-104906000D03*
%TO.P,L1,2,2*%
%TO.N,Net-(IC2-SW)*%
X147027000Y-101906000D03*
%TD*%
D10*
%TO.P,R1,1*%
%TO.N,Net-(U8-~{CHG})*%
X140931000Y-78496766D03*
%TO.P,R1,2*%
%TO.N,/Out*%
X140931000Y-76990034D03*
%TD*%
D18*
%TO.P,R15,1*%
%TO.N,GND*%
X127977034Y-83848000D03*
%TO.P,R15,2*%
%TO.N,Net-(U1-CFG1)*%
X129483766Y-83848000D03*
%TD*%
D22*
%TO.P,U6,1,AO1*%
%TO.N,/MOTOR3_A_OUT*%
X147789000Y-118258000D03*
%TO.P,U6,2,AO1*%
X147789000Y-117608000D03*
%TO.P,U6,3,PGND1*%
%TO.N,GND*%
X147789000Y-116958000D03*
%TO.P,U6,4,PGND1*%
X147789000Y-116308000D03*
%TO.P,U6,5,AO2*%
%TO.N,/MOTOR3_B_OUT*%
X147789000Y-115658000D03*
%TO.P,U6,6,AO2*%
X147789000Y-115008000D03*
%TO.P,U6,7,BO2*%
%TO.N,/MOTOR4_B_OUT*%
X147789000Y-114358000D03*
%TO.P,U6,8,BO2*%
X147789000Y-113708000D03*
%TO.P,U6,9,PGND2*%
%TO.N,GND*%
X147789000Y-113058000D03*
%TO.P,U6,10,PGND2*%
X147789000Y-112408000D03*
%TO.P,U6,11,BO1*%
%TO.N,/MOTOR4_A_OUT*%
X147789000Y-111758000D03*
%TO.P,U6,12,BO1*%
X147789000Y-111108000D03*
%TO.P,U6,13,VM2*%
%TO.N,/Out*%
X140589000Y-111108000D03*
%TO.P,U6,14,VM3*%
X140589000Y-111758000D03*
%TO.P,U6,15,PWMB*%
%TO.N,/MOTOR4_CTRL2*%
X140589000Y-112408000D03*
%TO.P,U6,16,BIN2*%
%TO.N,/MOTOR4_CTRL1*%
X140589000Y-113058000D03*
%TO.P,U6,17,BIN1*%
%TO.N,/CTRL4_INV*%
X140589000Y-113708000D03*
%TO.P,U6,18,GND*%
%TO.N,GND*%
X140589000Y-114358000D03*
%TO.P,U6,19,STBY*%
%TO.N,/3V3*%
X140589000Y-115008000D03*
%TO.P,U6,20,VCC*%
X140589000Y-115658000D03*
%TO.P,U6,21,AIN1*%
%TO.N,/CTRL3_INV*%
X140589000Y-116308000D03*
%TO.P,U6,22,AIN2*%
%TO.N,/MOTOR3_CTRL1*%
X140589000Y-116958000D03*
%TO.P,U6,23,PWMA*%
%TO.N,/MOTOR3_CTRL2*%
X140589000Y-117608000D03*
%TO.P,U6,24,VM1*%
%TO.N,/Out*%
X140589000Y-118258000D03*
%TD*%
D25*
%TO.P,R20,1,1*%
%TO.N,/Sense_+*%
X153885000Y-118254294D03*
%TO.P,R20,2,2*%
%TO.N,/Sense_-*%
X153885000Y-112121706D03*
%TD*%
D10*
%TO.P,R2,1*%
%TO.N,Net-(U8-~{PGOOD})*%
X149860000Y-78993966D03*
%TO.P,R2,2*%
%TO.N,/Out*%
X149860000Y-77487234D03*
%TD*%
D11*
%TO.P,C8,1*%
%TO.N,/EXT_LOAD1_OUT*%
X116586000Y-96774025D03*
%TO.P,C8,2*%
%TO.N,GND*%
X116586000Y-95373975D03*
%TD*%
%TO.P,C9,1*%
%TO.N,Net-(U2-CT)*%
X125730000Y-97790025D03*
%TO.P,C9,2*%
%TO.N,GND*%
X125730000Y-96389975D03*
%TD*%
D26*
%TO.P,USBC1,0,SH*%
%TO.N,GND*%
X132849100Y-73620200D03*
%TO.P,USBC1,1,SH*%
X124198900Y-73620200D03*
D27*
%TO.P,USBC1,2,SH*%
X124198900Y-69440400D03*
%TO.P,USBC1,3,SH*%
X132849100Y-69440400D03*
D28*
%TO.P,USBC1,A1,GND*%
X131874000Y-74388500D03*
%TO.P,USBC1,A4,VBUS*%
%TO.N,/VBUS*%
X131073900Y-74388500D03*
%TO.P,USBC1,A5,CC1*%
%TO.N,/CC1*%
X129773900Y-74388500D03*
%TO.P,USBC1,A6,DP1*%
%TO.N,unconnected-(USBC1-DP1-PadA6)*%
X128773900Y-74388500D03*
%TO.P,USBC1,A7,DN1*%
%TO.N,unconnected-(USBC1-DN1-PadA7)*%
X128274100Y-74388500D03*
%TO.P,USBC1,A8,SBU1*%
%TO.N,unconnected-(USBC1-SBU1-PadA8)*%
X127274300Y-74388500D03*
%TO.P,USBC1,A9,VBUS*%
%TO.N,/VBUS*%
X125973800Y-74388500D03*
%TO.P,USBC1,A12,GND*%
%TO.N,GND*%
X125174000Y-74388500D03*
%TO.P,USBC1,B1,GND*%
X125474000Y-74388500D03*
%TO.P,USBC1,B4,VBUS*%
%TO.N,/VBUS*%
X126274100Y-74388500D03*
%TO.P,USBC1,B5,CC2*%
%TO.N,/CC2*%
X126773900Y-74388500D03*
%TO.P,USBC1,B6,DP2*%
%TO.N,unconnected-(USBC1-DP2-PadB6)*%
X127773900Y-74388500D03*
%TO.P,USBC1,B7,DN2*%
%TO.N,unconnected-(USBC1-DN2-PadB7)*%
X129274100Y-74388500D03*
%TO.P,USBC1,B8,SBU2*%
%TO.N,unconnected-(USBC1-SBU2-PadB8)*%
X130274100Y-74388500D03*
%TO.P,USBC1,B9,VBUS*%
%TO.N,/VBUS*%
X130773900Y-74388500D03*
%TO.P,USBC1,B12,GND*%
%TO.N,GND*%
X131574000Y-74388500D03*
%TD*%
D29*
%TO.P,U4,1,VIN*%
%TO.N,/Out*%
X159473000Y-109730000D03*
%TO.P,U4,2,GND*%
%TO.N,GND*%
X159473000Y-108780000D03*
%TO.P,U4,3,EN*%
%TO.N,Net-(U4-EN)*%
X159473000Y-107830000D03*
%TO.P,U4,4,NC*%
%TO.N,unconnected-(U4-NC-Pad4)*%
X157198000Y-107830000D03*
%TO.P,U4,5,VOUT*%
%TO.N,/3V3*%
X157198000Y-109730000D03*
%TD*%
D30*
%TO.P,Q2,1,G*%
%TO.N,Net-(Q2-G)*%
X140090500Y-94958000D03*
%TO.P,Q2,2,S*%
%TO.N,GND*%
X140090500Y-93058000D03*
%TO.P,Q2,3,D*%
%TO.N,Net-(Q2-D)*%
X138215500Y-94008000D03*
%TD*%
D13*
%TO.P,C4,1*%
%TO.N,/3V3*%
X157756975Y-112778000D03*
%TO.P,C4,2*%
%TO.N,GND*%
X159157025Y-112778000D03*
%TD*%
D31*
%TO.P,U8,1,TS*%
%TO.N,Net-(U8-TS)*%
X144355000Y-82419900D03*
%TO.P,U8,2,BAT*%
%TO.N,/Sense_+*%
X144355000Y-81920100D03*
%TO.P,U8,3,BAT*%
X144355000Y-81419900D03*
%TO.P,U8,4,~{CE}*%
%TO.N,GND*%
X144355000Y-80920100D03*
D32*
%TO.P,U8,5,EN2*%
%TO.N,/Out*%
X143604900Y-80170000D03*
%TO.P,U8,6,EN1*%
%TO.N,GND*%
X143105100Y-80170000D03*
%TO.P,U8,7,~{PGOOD}*%
%TO.N,Net-(U8-~{PGOOD})*%
X142604900Y-80170000D03*
%TO.P,U8,8,VSS*%
%TO.N,GND*%
X142105100Y-80170000D03*
D31*
%TO.P,U8,9,~{CHG}*%
%TO.N,Net-(U8-~{CHG})*%
X141355000Y-80920100D03*
%TO.P,U8,10,OUT*%
%TO.N,/CHARGER_OUT*%
X141355000Y-81419900D03*
%TO.P,U8,11,OUT*%
X141355000Y-81920100D03*
%TO.P,U8,12,ILIM*%
%TO.N,Net-(U8-ILIM)*%
X141355000Y-82419900D03*
D32*
%TO.P,U8,13,IN*%
%TO.N,/HV*%
X142105100Y-83170000D03*
%TO.P,U8,14,TMR*%
%TO.N,GND*%
X142604900Y-83170000D03*
%TO.P,U8,15,ITERM*%
%TO.N,unconnected-(U8-ITERM-Pad15)*%
X143105100Y-83170000D03*
%TO.P,U8,16,ISET*%
%TO.N,Net-(U8-ISET)*%
X143604900Y-83170000D03*
D33*
%TO.P,U8,17,VSS*%
%TO.N,GND*%
X142854900Y-81669900D03*
%TD*%
D18*
%TO.P,R8,1*%
%TO.N,/EXT_LOAD1_OUT*%
X116603234Y-101600000D03*
%TO.P,R8,2*%
%TO.N,Net-(U2-QOD)*%
X118109966Y-101600000D03*
%TD*%
D34*
%TO.P,R13,1*%
%TO.N,Net-(IC2-FB)*%
X136359000Y-105601591D03*
%TO.P,R13,2*%
%TO.N,GND*%
X136359000Y-102644009D03*
%TD*%
D10*
%TO.P,R7,1*%
%TO.N,/EXT_LOAD1_OUT*%
X113030000Y-97789966D03*
%TO.P,R7,2*%
%TO.N,GND*%
X113030000Y-96283234D03*
%TD*%
D35*
%TO.P,U9,1,1*%
%TO.N,unconnected-(U9-Pad1)*%
X138390975Y-70132000D03*
%TO.P,U9,2,2*%
%TO.N,/Out*%
X143091000Y-70132000D03*
%TO.P,U9,3,3*%
%TO.N,/CHARGER_OUT*%
X147791025Y-70132000D03*
%TD*%
D36*
%TO.P,IC1,1,1A*%
%TO.N,/MOTOR1_CTRL1*%
X130033836Y-111025992D03*
%TO.P,IC1,2,1Y*%
%TO.N,/CTRL1_INV*%
X130033836Y-112295995D03*
%TO.P,IC1,3,2A*%
%TO.N,/MOTOR2_CTRL1*%
X130033836Y-113565997D03*
%TO.P,IC1,4,2Y*%
%TO.N,/CTRL2_INV*%
X130033836Y-114836000D03*
%TO.P,IC1,5,3A*%
%TO.N,/MOTOR3_CTRL1*%
X130033836Y-116106003D03*
%TO.P,IC1,6,3Y*%
%TO.N,/CTRL3_INV*%
X130033836Y-117376005D03*
%TO.P,IC1,7,GND*%
%TO.N,GND*%
X130033836Y-118646008D03*
%TO.P,IC1,8,4Y*%
%TO.N,unconnected-(IC1-4Y-Pad8)*%
X135572063Y-118646008D03*
%TO.P,IC1,9,4A*%
%TO.N,unconnected-(IC1-4A-Pad9)*%
X135572063Y-117376005D03*
%TO.P,IC1,10,5Y*%
%TO.N,unconnected-(IC1-5Y-Pad10)*%
X135572063Y-116106003D03*
%TO.P,IC1,11,5A*%
%TO.N,unconnected-(IC1-5A-Pad11)*%
X135572063Y-114836000D03*
%TO.P,IC1,12,6Y*%
%TO.N,/CTRL4_INV*%
X135572063Y-113565997D03*
%TO.P,IC1,13,6A*%
%TO.N,/MOTOR4_CTRL1*%
X135572063Y-112295995D03*
%TO.P,IC1,14,VCC*%
%TO.N,/3V3*%
X135572063Y-111025992D03*
%TD*%
D10*
%TO.P,R14,1*%
%TO.N,Net-(U4-EN)*%
X154647000Y-106708034D03*
%TO.P,R14,2*%
%TO.N,/Out*%
X154647000Y-108214766D03*
%TD*%
D37*
%TO.P,C13,1*%
%TO.N,/5V*%
X138645017Y-99342000D03*
%TO.P,C13,2*%
%TO.N,GND*%
X141830183Y-99342000D03*
%TD*%
D38*
%TO.P,J2,1,Pin_1*%
%TO.N,/MOTOR2_B_OUT*%
X159004000Y-124714000D03*
D39*
%TO.P,J2,2,Pin_2*%
%TO.N,/MOTOR2_A_OUT*%
X159004000Y-122174000D03*
%TO.P,J2,3,Pin_3*%
%TO.N,/MOTOR4_A_OUT*%
X156464000Y-124714000D03*
%TO.P,J2,4,Pin_4*%
%TO.N,/MOTOR2_CTRL1*%
X156464000Y-122174000D03*
%TO.P,J2,5,Pin_5*%
%TO.N,/MOTOR4_B_OUT*%
X153924000Y-124714000D03*
%TO.P,J2,6,Pin_6*%
%TO.N,/MOTOR2_CTRL2*%
X153924000Y-122174000D03*
%TO.P,J2,7,Pin_7*%
%TO.N,/CTRL_EXT_LOAD2*%
X151384000Y-124714000D03*
%TO.P,J2,8,Pin_8*%
%TO.N,/MOTOR4_CTRL1*%
X151384000Y-122174000D03*
%TO.P,J2,9,Pin_9*%
%TO.N,/USART2_RX*%
X148844000Y-124714000D03*
%TO.P,J2,10,Pin_10*%
%TO.N,/MOTOR4_CTRL2*%
X148844000Y-122174000D03*
%TO.P,J2,11,Pin_11*%
%TO.N,/EXT_LOAD2_OUT*%
X146304000Y-124714000D03*
%TO.P,J2,12,Pin_12*%
%TO.N,/USART2_TX*%
X146304000Y-122174000D03*
%TO.P,J2,13,Pin_13*%
%TO.N,/FAST_CHARGE_CTRL*%
X143764000Y-124714000D03*
%TO.P,J2,14,Pin_14*%
%TO.N,/Sense_-*%
X143764000Y-122174000D03*
%TO.P,J2,15,Pin_15*%
%TO.N,unconnected-(J2-Pin_15-Pad15)*%
X141224000Y-124714000D03*
%TO.P,J2,16,Pin_16*%
%TO.N,/I2C1_SCL*%
X141224000Y-122174000D03*
%TO.P,J2,17,Pin_17*%
%TO.N,/I2C1_SDA*%
X138684000Y-124714000D03*
%TO.P,J2,18,Pin_18*%
%TO.N,/3V3*%
X138684000Y-122174000D03*
%TO.P,J2,19,Pin_19*%
%TO.N,GND*%
X136144000Y-124714000D03*
%TO.P,J2,20,Pin_20*%
%TO.N,/5V*%
X136144000Y-122174000D03*
%TO.P,J2,21,Pin_21*%
%TO.N,/EXT_LOAD1_OUT*%
X133604000Y-124714000D03*
%TO.P,J2,22,Pin_22*%
%TO.N,/HV*%
X133604000Y-122174000D03*
%TO.P,J2,23,Pin_23*%
%TO.N,GND*%
X131064000Y-124714000D03*
%TO.P,J2,24,Pin_24*%
%TO.N,/MOTOR3_CTRL1*%
X131064000Y-122174000D03*
%TO.P,J2,25,Pin_25*%
%TO.N,/CTRL_EXT_LOAD1*%
X128524000Y-124714000D03*
%TO.P,J2,26,Pin_26*%
%TO.N,/MOTOR3_CTRL2*%
X128524000Y-122174000D03*
%TO.P,J2,27,Pin_27*%
%TO.N,/MOTOR3_A_OUT*%
X125984000Y-124714000D03*
%TO.P,J2,28,Pin_28*%
%TO.N,/MOTOR1_CTRL1*%
X125984000Y-122174000D03*
%TO.P,J2,29,Pin_29*%
%TO.N,/MOTOR3_B_OUT*%
X123444000Y-124714000D03*
%TO.P,J2,30,Pin_30*%
%TO.N,/MOTOR1_CTRL2*%
X123444000Y-122174000D03*
%TO.P,J2,31,Pin_31*%
%TO.N,/MOTOR1_B_OUT*%
X120904000Y-124714000D03*
%TO.P,J2,32,Pin_32*%
%TO.N,/MOTOR1_A_OUT*%
X120904000Y-122174000D03*
%TD*%
D40*
%TO.N,GND*%
X127070300Y-83745800D03*
X120460400Y-108418300D03*
X146379900Y-116958000D03*
X139201400Y-114358000D03*
X160713700Y-108686500D03*
X149724000Y-108957300D03*
X138956700Y-104733700D03*
X136547200Y-90726300D03*
X165550600Y-69356600D03*
X152323500Y-98211400D03*
X137745000Y-102496900D03*
X126611000Y-115272100D03*
X122199800Y-92753900D03*
X159163600Y-94601700D03*
X160064800Y-112571900D03*
X138212500Y-85719600D03*
X152763600Y-95588600D03*
X131722400Y-118446200D03*
X135242000Y-80718300D03*
X112077100Y-96502400D03*
X141795600Y-102327300D03*
X149191700Y-112385400D03*
X159611000Y-89394300D03*
X144226700Y-75850600D03*
X155985200Y-116742000D03*
X149099600Y-94676300D03*
X120926400Y-70945100D03*
X160661600Y-116092000D03*
X117552300Y-95588600D03*
X152823100Y-94601700D03*
X143085200Y-99552800D03*
X128690300Y-77885800D03*
X140908000Y-92240500D03*
X136429400Y-83872900D03*
X145200200Y-91214000D03*
X122283400Y-97028000D03*
X126693100Y-96601400D03*
X142604900Y-84092200D03*
X119423300Y-112780600D03*
X145279000Y-80920100D03*
X119427100Y-117111000D03*
%TO.N,/HV*%
X140634100Y-84732700D03*
D41*
%TO.N,/Out*%
X144594900Y-104470700D03*
X138653700Y-111499200D03*
X126771300Y-118287300D03*
X144594900Y-79930000D03*
X141741200Y-76837500D03*
X144594900Y-108500000D03*
X124790900Y-110392100D03*
X138549200Y-117195900D03*
D40*
%TO.N,/3V3*%
X137978400Y-116014000D03*
D41*
%TO.N,/CHARGER_OUT*%
X140547000Y-81772000D03*
X141624300Y-71903000D03*
D40*
%TO.N,/5V*%
X140634100Y-107431400D03*
X140518900Y-100638400D03*
D41*
%TO.N,/EXT_LOAD1_OUT*%
X130732100Y-104470700D03*
%TO.N,/EXT_LOAD2_OUT*%
X154615500Y-92627900D03*
X152000000Y-120627300D03*
D40*
%TO.N,/MOTOR4_CTRL1*%
X144594900Y-113352800D03*
%TO.N,/MOTOR3_CTRL1*%
X127864500Y-117300400D03*
%TO.N,/MOTOR2_CTRL1*%
X137608600Y-114567100D03*
X141831400Y-109610700D03*
X155718100Y-109459200D03*
D41*
%TO.N,/Sense_-*%
X156477300Y-112365900D03*
X160438100Y-72889900D03*
D40*
%TO.N,/FAST_CHARGE_CTRL*%
X137042000Y-97562400D03*
%TO.N,/CTRL_EXT_LOAD2*%
X154345400Y-96575500D03*
%TO.N,/MOTOR3_A_OUT*%
X137608000Y-120640900D03*
%TO.N,/MOTOR4_B_OUT*%
X152882800Y-115087600D03*
%TO.N,/MOTOR4_A_OUT*%
X156410200Y-113502900D03*
%TO.N,/CTRL_EXT_LOAD1*%
X119803600Y-95558600D03*
%TO.N,/I2C1_SDA*%
X145565700Y-120241800D03*
%TO.N,/MOTOR4_CTRL2*%
X143604700Y-112365900D03*
%TO.N,Net-(U8-TS)*%
X142614500Y-88680300D03*
X143902400Y-84732700D03*
D41*
%TO.N,/Sense_+*%
X155354000Y-116484100D03*
X151526300Y-82758900D03*
%TD*%
D42*
%TO.N,GND*%
X152823100Y-94601700D02*
X153037300Y-94387500D01*
X125174000Y-74388500D02*
X125474000Y-74388500D01*
X152323500Y-98211400D02*
X152430700Y-98211400D01*
X126514800Y-115272100D02*
X126403700Y-115161000D01*
X159123000Y-94601700D02*
X158954700Y-94770000D01*
X132849100Y-73620200D02*
X132849100Y-74921900D01*
X127169900Y-83745800D02*
X127272100Y-83848000D01*
X139531800Y-104132000D02*
X139531800Y-104733700D01*
X142105100Y-80170000D02*
X142105100Y-80871700D01*
X141795600Y-102327300D02*
X142148600Y-102327300D01*
X146612300Y-116958000D02*
X146612300Y-116308000D01*
X127070300Y-83745800D02*
X127169900Y-83745800D01*
X126611000Y-115272100D02*
X126514800Y-115272100D01*
X166568000Y-70374000D02*
X165550600Y-69356600D01*
X136429400Y-83872900D02*
X136641300Y-84084800D01*
X119203700Y-116461000D02*
X119203700Y-117111000D01*
X128690300Y-77885800D02*
X128489700Y-78086400D01*
X142854900Y-81252300D02*
X142485700Y-81252300D01*
X142604900Y-84092200D02*
X142604900Y-83170000D01*
X119203700Y-112561000D02*
X119203700Y-113211000D01*
X143471000Y-102898000D02*
X142719300Y-102898000D01*
X120460400Y-108418300D02*
X120603600Y-108418300D01*
X154139000Y-94387500D02*
X153037300Y-94387500D01*
X136359000Y-102644000D02*
X137511200Y-102644000D01*
X143021000Y-81086200D02*
X142854900Y-81252300D01*
X116586000Y-95374000D02*
X117337700Y-95374000D01*
X124198900Y-73620200D02*
X124198900Y-74921900D01*
X152430700Y-98211400D02*
X152545300Y-98326000D01*
X122199800Y-92753900D02*
X121989700Y-92964000D01*
X148988300Y-112385400D02*
X149191700Y-112385400D01*
X158203000Y-94770000D02*
X158954700Y-94770000D01*
X159163600Y-94601700D02*
X159123000Y-94601700D01*
X124617200Y-75340200D02*
X125174000Y-75340200D01*
X138212500Y-85719600D02*
X138290900Y-85719600D01*
X122283400Y-97028000D02*
X121616000Y-97028000D01*
X137658300Y-102496900D02*
X137511200Y-102644000D01*
X142874400Y-99342000D02*
X143085200Y-99552800D01*
X125227000Y-115161000D02*
X126403700Y-115161000D01*
X127977000Y-83848000D02*
X127272100Y-83848000D01*
X121373000Y-108486000D02*
X120671300Y-108486000D01*
X143021000Y-81086200D02*
X143105100Y-81002100D01*
X117552300Y-95588600D02*
X117337700Y-95374000D01*
X149724000Y-108957300D02*
X149506700Y-108740000D01*
X131874000Y-74388500D02*
X131574000Y-74388500D01*
X119203700Y-112561000D02*
X119423300Y-112780600D01*
X144226700Y-75850600D02*
X144360900Y-75850600D01*
X159157000Y-112778000D02*
X159858700Y-112778000D01*
X159611000Y-89394300D02*
X159398700Y-89182000D01*
X143187100Y-80920100D02*
X143021000Y-81086200D01*
X160713700Y-108686500D02*
X160620200Y-108780000D01*
X146612300Y-113058000D02*
X146612300Y-112408000D01*
X135242000Y-80718300D02*
X135442300Y-80518000D01*
X160620200Y-108780000D02*
X159473000Y-108780000D01*
X125174000Y-74388500D02*
X125174000Y-75340200D01*
X128485100Y-80038100D02*
X128485100Y-78086400D01*
X160064800Y-112571900D02*
X159858700Y-112778000D01*
X137745000Y-102496900D02*
X137658300Y-102496900D01*
X139153000Y-85880000D02*
X138451300Y-85880000D01*
X147789000Y-112408000D02*
X148965700Y-112408000D01*
X145158000Y-75946000D02*
X144456300Y-75946000D01*
X149099600Y-94676300D02*
X149323300Y-94900000D01*
X118027000Y-113211000D02*
X119203700Y-113211000D01*
X148805000Y-108740000D02*
X149506700Y-108740000D01*
X139531800Y-104733700D02*
X138956700Y-104733700D01*
X157187000Y-116742000D02*
X157187000Y-117392000D01*
X143725000Y-91214000D02*
X145200200Y-91214000D01*
X120926400Y-70945100D02*
X121129300Y-71148000D01*
X113030000Y-96283200D02*
X112296300Y-96283200D01*
X119427100Y-117111000D02*
X119203700Y-117111000D01*
X152763600Y-95588600D02*
X153175400Y-95588600D01*
X147789000Y-112408000D02*
X146612300Y-112408000D01*
X136144000Y-80518000D02*
X135442300Y-80518000D01*
X130033800Y-118646000D02*
X131354600Y-118646000D01*
X141830200Y-99342000D02*
X142874400Y-99342000D01*
X131554400Y-118446200D02*
X131722400Y-118446200D01*
X118027000Y-112561000D02*
X119203700Y-112561000D01*
X150075000Y-94900000D02*
X149323300Y-94900000D01*
X142148600Y-102327300D02*
X142719300Y-102898000D01*
X153175400Y-95588600D02*
X153489000Y-95275000D01*
X147789000Y-113058000D02*
X146612300Y-113058000D01*
X153247000Y-98326000D02*
X152545300Y-98326000D01*
X128489700Y-78086400D02*
X128485100Y-78086400D01*
X121881000Y-71148000D02*
X121129300Y-71148000D01*
X139201400Y-114358000D02*
X140589000Y-114358000D01*
X158693800Y-89182000D02*
X159398700Y-89182000D01*
X157187000Y-116742000D02*
X155985200Y-116742000D01*
X142854900Y-81252300D02*
X142854900Y-81669900D01*
X132849100Y-74921900D02*
X132407400Y-74921900D01*
X121288000Y-92964000D02*
X121989700Y-92964000D01*
X138290900Y-85719600D02*
X138451300Y-85880000D01*
X147789000Y-116308000D02*
X146612300Y-116308000D01*
X148965700Y-112408000D02*
X148988300Y-112385400D01*
X135597000Y-90942800D02*
X136330700Y-90942800D01*
X161558500Y-108686500D02*
X160713700Y-108686500D01*
X144355000Y-80920100D02*
X143187100Y-80920100D01*
X142485700Y-81252300D02*
X142105100Y-80871700D01*
X162267000Y-107978000D02*
X161558500Y-108686500D01*
X143105100Y-81002100D02*
X143105100Y-80170000D01*
X145279000Y-80920100D02*
X144355000Y-80920100D01*
X112077100Y-96502400D02*
X112296300Y-96283200D01*
X137375000Y-84084800D02*
X136641300Y-84084800D01*
X120603600Y-108418300D02*
X120671300Y-108486000D01*
X132407400Y-74921900D02*
X131874000Y-74388500D01*
X121616000Y-97028000D02*
X121616000Y-96140500D01*
X121616000Y-97028000D02*
X120966000Y-97028000D01*
X147789000Y-116958000D02*
X146612300Y-116958000D01*
X136547200Y-90726300D02*
X136330700Y-90942800D01*
X118027000Y-117111000D02*
X119203700Y-117111000D01*
X160661600Y-116092000D02*
X159462000Y-116092000D01*
X144360900Y-75850600D02*
X144456300Y-75946000D01*
X118027000Y-116461000D02*
X119203700Y-116461000D01*
X125730000Y-96390000D02*
X126481700Y-96390000D01*
X131354600Y-118646000D02*
X131554400Y-118446200D01*
X146379900Y-116958000D02*
X146612300Y-116958000D01*
X126481700Y-96390000D02*
X126693100Y-96601400D01*
X124198900Y-74921900D02*
X124617200Y-75340200D01*
X140090500Y-93058000D02*
X140908000Y-92240500D01*
%TO.N,/HV*%
X140634100Y-84732700D02*
X140553000Y-84813800D01*
X142105100Y-83170000D02*
X140634100Y-84641000D01*
X140553000Y-84813800D02*
X140553000Y-85880000D01*
X140634100Y-84641000D02*
X140634100Y-84732700D01*
%TO.N,/Out*%
X139531800Y-102632000D02*
X140031900Y-102632000D01*
X125227000Y-117761000D02*
X126403700Y-117761000D01*
X132138300Y-118011000D02*
X131971500Y-117844200D01*
X141193900Y-102772600D02*
X142719300Y-104298000D01*
X138653700Y-111499200D02*
X139412300Y-111499200D01*
X146558000Y-75946000D02*
X149023700Y-75946000D01*
X147027000Y-104906000D02*
X145030200Y-104906000D01*
X140000700Y-111108000D02*
X139412300Y-111108000D01*
X147405000Y-108740000D02*
X148181300Y-107963700D01*
X154647000Y-108214800D02*
X154647000Y-108919700D01*
X141664700Y-76914000D02*
X141664700Y-76990000D01*
X140589000Y-118258000D02*
X138796200Y-118258000D01*
X126647600Y-118411000D02*
X126403700Y-118411000D01*
X143604900Y-80170000D02*
X143844900Y-79930000D01*
X162267000Y-109378000D02*
X161515300Y-109378000D01*
X144395400Y-104470700D02*
X144222700Y-104298000D01*
X143471000Y-104298000D02*
X142719300Y-104298000D01*
X155469000Y-108857500D02*
X155406800Y-108919700D01*
X124050300Y-111261000D02*
X124050300Y-110392100D01*
X124050300Y-109061600D02*
X123474700Y-108486000D01*
X124050300Y-110392100D02*
X124050300Y-109061600D01*
X138549200Y-118011000D02*
X132138300Y-118011000D01*
X161163300Y-109730000D02*
X159473000Y-109730000D01*
X140589000Y-111758000D02*
X139412300Y-111758000D01*
X155967300Y-108857500D02*
X155469000Y-108857500D01*
X148181300Y-107963700D02*
X153662200Y-107963700D01*
X158089600Y-108919700D02*
X156029500Y-108919700D01*
X138549200Y-118011000D02*
X138549200Y-117195900D01*
X144594900Y-108740000D02*
X141851300Y-108740000D01*
X125227000Y-111261000D02*
X124050300Y-111261000D01*
X158899900Y-109730000D02*
X158089600Y-108919700D01*
X131473200Y-117844200D02*
X131306400Y-118011000D01*
X122773000Y-108486000D02*
X123474700Y-108486000D01*
X155406800Y-108919700D02*
X154647000Y-108919700D01*
X144594900Y-108740000D02*
X147405000Y-108740000D01*
X145666500Y-76837500D02*
X141741200Y-76837500D01*
X141193900Y-102417400D02*
X141193900Y-102772600D01*
X144594900Y-108740000D02*
X144594900Y-108500000D01*
X161515300Y-109378000D02*
X161163300Y-109730000D01*
X145030200Y-104906000D02*
X144594900Y-104470700D01*
X146558000Y-75946000D02*
X145666500Y-76837500D01*
X125227000Y-118411000D02*
X126403700Y-118411000D01*
X140000700Y-110590600D02*
X140000700Y-111108000D01*
X126403700Y-117761000D02*
X126403700Y-118011000D01*
X140589000Y-111108000D02*
X140000700Y-111108000D01*
X140806800Y-102030300D02*
X141193900Y-102417400D01*
X139412300Y-111758000D02*
X139412300Y-111499200D01*
X154647000Y-108214800D02*
X153913300Y-108214800D01*
X139412300Y-111499200D02*
X139412300Y-111108000D01*
X126771300Y-118287300D02*
X126647600Y-118411000D01*
X143844900Y-79930000D02*
X144594900Y-79930000D01*
X141741200Y-76837500D02*
X141664700Y-76914000D01*
X143471000Y-104298000D02*
X144222700Y-104298000D01*
X138796200Y-118258000D02*
X138549200Y-118011000D01*
X144594900Y-104470700D02*
X144395400Y-104470700D01*
X131971500Y-117844200D02*
X131473200Y-117844200D01*
X156029500Y-108919700D02*
X155967300Y-108857500D01*
X159473000Y-109730000D02*
X158899900Y-109730000D01*
X149023700Y-75946000D02*
X149860000Y-76782300D01*
X149860000Y-77487200D02*
X149860000Y-76782300D01*
X131306400Y-118011000D02*
X126403700Y-118011000D01*
X140031900Y-102030300D02*
X140806800Y-102030300D01*
X141851300Y-108740000D02*
X140000700Y-110590600D01*
X153662200Y-107963700D02*
X153913300Y-108214800D01*
X140931000Y-76990000D02*
X141664700Y-76990000D01*
X124050300Y-110392100D02*
X124790900Y-110392100D01*
X140031900Y-102632000D02*
X140031900Y-102030300D01*
X126403700Y-118011000D02*
X126403700Y-118411000D01*
%TO.N,/3V3*%
X134210500Y-112931000D02*
X128931500Y-112931000D01*
X135572100Y-111026000D02*
X134251300Y-111026000D01*
X138148800Y-114201000D02*
X138093400Y-114201000D01*
X140589000Y-115008000D02*
X141765700Y-115008000D01*
X134210500Y-111066800D02*
X134251300Y-111026000D01*
X139412300Y-115008000D02*
X138955800Y-115008000D01*
X126403700Y-113861000D02*
X125227000Y-113861000D01*
X125227000Y-114511000D02*
X126403700Y-114511000D01*
X128001500Y-113861000D02*
X126403700Y-113861000D01*
X137123900Y-114201000D02*
X134630100Y-114201000D01*
X134630100Y-114201000D02*
X134210500Y-113781400D01*
X159462000Y-114483000D02*
X157757000Y-112778000D01*
X157198000Y-110009500D02*
X157198000Y-109730000D01*
X134210500Y-112931000D02*
X134210500Y-111066800D01*
X126403700Y-113861000D02*
X126403700Y-114511000D01*
X145237400Y-113577400D02*
X145237400Y-112132600D01*
X140000700Y-115008000D02*
X140589000Y-115008000D01*
X138093400Y-114201000D02*
X137857800Y-113965400D01*
X157146600Y-110060900D02*
X157198000Y-110009500D01*
X139412300Y-115658000D02*
X139412300Y-115008000D01*
X134210500Y-113781400D02*
X134210500Y-112931000D01*
X137359500Y-113965400D02*
X137123900Y-114201000D01*
X143806800Y-115008000D02*
X145237400Y-113577400D01*
X138334400Y-115658000D02*
X137978400Y-116014000D01*
X141765700Y-115008000D02*
X143806800Y-115008000D01*
X145237400Y-112132600D02*
X147309100Y-110060900D01*
X157757000Y-112778000D02*
X157757000Y-110671300D01*
X140589000Y-115658000D02*
X139412300Y-115658000D01*
X159462000Y-115442000D02*
X159462000Y-114483000D01*
X139412300Y-115658000D02*
X138334400Y-115658000D01*
X138955800Y-115008000D02*
X138148800Y-114201000D01*
X137857800Y-113965400D02*
X137359500Y-113965400D01*
X147309100Y-110060900D02*
X157146600Y-110060900D01*
X157757000Y-110671300D02*
X157146600Y-110060900D01*
X128931500Y-112931000D02*
X128001500Y-113861000D01*
X140000700Y-115008000D02*
X139412300Y-115008000D01*
%TO.N,/CHARGER_OUT*%
X140547000Y-81772000D02*
X140653300Y-81772000D01*
X141355000Y-81419900D02*
X140653300Y-81419900D01*
X140653300Y-81419900D02*
X139147600Y-81419900D01*
X137544000Y-80518000D02*
X138245700Y-80518000D01*
X140653300Y-81772000D02*
X140653300Y-81419900D01*
X147791000Y-70132000D02*
X145925400Y-71997600D01*
X139147600Y-81419900D02*
X138245700Y-80518000D01*
X140653300Y-81920100D02*
X140653300Y-81772000D01*
X141718900Y-71997600D02*
X141624300Y-71903000D01*
X145925400Y-71997600D02*
X141718900Y-71997600D01*
X141355000Y-81920100D02*
X140653300Y-81920100D01*
%TO.N,/5V*%
X119888000Y-94922100D02*
X129942200Y-94922100D01*
X139689200Y-99342000D02*
X140518900Y-100171700D01*
X119554500Y-96160300D02*
X120296200Y-96160300D01*
X154789000Y-95275000D02*
X154947100Y-95433100D01*
X131608000Y-96587900D02*
X136935100Y-96587900D01*
X154647000Y-98326000D02*
X154647000Y-97574300D01*
X119888000Y-93715700D02*
X119888000Y-94922100D01*
X139689200Y-99342000D02*
X141456900Y-97574300D01*
X141456900Y-97574300D02*
X154647000Y-97574300D01*
X119888000Y-94922100D02*
X119548800Y-94922100D01*
X140634100Y-107431400D02*
X140877800Y-107187700D01*
X136935100Y-96587900D02*
X139689200Y-99342000D01*
X119888000Y-92964000D02*
X119888000Y-93715700D01*
X119548800Y-94922100D02*
X119201900Y-95269000D01*
X140518900Y-100171700D02*
X140518900Y-100638400D01*
X129942200Y-94922100D02*
X131608000Y-96587900D01*
X140913800Y-106820800D02*
X140913800Y-106454000D01*
X140877800Y-107187700D02*
X140913800Y-107187700D01*
X119201900Y-95807700D02*
X119554500Y-96160300D01*
X154947100Y-97274200D02*
X154647000Y-97574300D01*
X119201900Y-95269000D02*
X119201900Y-95807700D01*
X120296200Y-96160300D02*
X120316000Y-96140500D01*
X140531800Y-104132000D02*
X140531800Y-104733700D01*
X138645000Y-99342000D02*
X139689200Y-99342000D01*
X140913800Y-106454000D02*
X140913800Y-105115700D01*
X140913800Y-105115700D02*
X140531800Y-104733700D01*
X154947100Y-95433100D02*
X154947100Y-97274200D01*
X140913800Y-106820800D02*
X140913800Y-107187700D01*
%TO.N,/EXT_LOAD1_OUT*%
X116586000Y-96774000D02*
X116586000Y-97475700D01*
X116603200Y-101600000D02*
X116955700Y-101600000D01*
X116955700Y-98235600D02*
X117150800Y-98040500D01*
X116955700Y-101600000D02*
X116955700Y-98235600D01*
X113030000Y-97790000D02*
X116271700Y-97790000D01*
X116955700Y-101600000D02*
X117308100Y-101600000D01*
X116271700Y-97790000D02*
X116586000Y-97475700D01*
X120316000Y-97915500D02*
X120191000Y-98040500D01*
X130732100Y-104470700D02*
X119650100Y-104470700D01*
X117150800Y-98040500D02*
X116586000Y-97475700D01*
X120191000Y-98040500D02*
X117150800Y-98040500D01*
X117308100Y-102128700D02*
X117308100Y-101600000D01*
X119650100Y-104470700D02*
X117308100Y-102128700D01*
%TO.N,Net-(U2-CT)*%
X125730000Y-97790000D02*
X124978300Y-97790000D01*
X121616000Y-97915500D02*
X124852800Y-97915500D01*
X124852800Y-97915500D02*
X124978300Y-97790000D01*
%TO.N,Net-(U5-CT)*%
X153489000Y-93500000D02*
X150075000Y-93500000D01*
%TO.N,/EXT_LOAD2_OUT*%
X146304000Y-123562300D02*
X146304000Y-124714000D01*
X154615500Y-92627900D02*
X154639600Y-92627900D01*
X157821000Y-93370000D02*
X157451300Y-93370000D01*
X148460700Y-120912000D02*
X147455700Y-121917000D01*
X155330700Y-93319000D02*
X155330700Y-93370000D01*
X158203000Y-93370000D02*
X157821000Y-93370000D01*
X157821000Y-93370000D02*
X157187000Y-92736000D01*
X147455700Y-121917000D02*
X147455700Y-122698600D01*
X152000000Y-120627300D02*
X151639600Y-120627300D01*
X146592000Y-123562300D02*
X146304000Y-123562300D01*
X155200700Y-93500000D02*
X155330700Y-93370000D01*
X154789000Y-93500000D02*
X155200700Y-93500000D01*
X157187000Y-89182000D02*
X155391800Y-89182000D01*
X157187000Y-92736000D02*
X157187000Y-89182000D01*
X147455700Y-122698600D02*
X146592000Y-123562300D01*
X151639600Y-120627300D02*
X151354900Y-120912000D01*
X157451300Y-93370000D02*
X155330700Y-93370000D01*
X151354900Y-120912000D02*
X148460700Y-120912000D01*
X154639600Y-92627900D02*
X155330700Y-93319000D01*
%TO.N,Net-(U1-VDD)*%
X123151000Y-77226800D02*
X123151000Y-77931700D01*
X121881000Y-75780600D02*
X122622300Y-76521900D01*
X123257400Y-78038100D02*
X123151000Y-77931700D01*
X121881000Y-72548000D02*
X121881000Y-75780600D01*
X123151000Y-77226800D02*
X123151000Y-76521900D01*
X125484900Y-78038100D02*
X123257400Y-78038100D01*
X122622300Y-76521900D02*
X123151000Y-76521900D01*
%TO.N,/CTRL4_INV*%
X138168400Y-113708000D02*
X138024100Y-113563700D01*
X138024100Y-113563700D02*
X136895200Y-113563700D01*
X136895200Y-113563700D02*
X136892900Y-113566000D01*
X140589000Y-113708000D02*
X138168400Y-113708000D01*
X135572100Y-113566000D02*
X136892900Y-113566000D01*
%TO.N,/CTRL1_INV*%
X127517700Y-113211000D02*
X125227000Y-113211000D01*
X128432700Y-112296000D02*
X127517700Y-113211000D01*
X130033800Y-112296000D02*
X128432700Y-112296000D01*
%TO.N,/MOTOR4_CTRL1*%
X144594900Y-113352800D02*
X144300100Y-113058000D01*
X135572100Y-112296000D02*
X136892900Y-112296000D01*
X136892900Y-112296000D02*
X137654900Y-113058000D01*
X144300100Y-113058000D02*
X140589000Y-113058000D01*
X137654900Y-113058000D02*
X140589000Y-113058000D01*
%TO.N,/MOTOR3_CTRL1*%
X134464200Y-119637500D02*
X132215700Y-121886000D01*
X129058900Y-116106000D02*
X130033800Y-116106000D01*
X131064000Y-122174000D02*
X132215700Y-122174000D01*
X142167400Y-118837100D02*
X141367000Y-119637500D01*
X141765700Y-116958000D02*
X142167400Y-117359700D01*
X142167400Y-117359700D02*
X142167400Y-118837100D01*
X140589000Y-116958000D02*
X141765700Y-116958000D01*
X141367000Y-119637500D02*
X134464200Y-119637500D01*
X127864500Y-117300400D02*
X129058900Y-116106000D01*
X132215700Y-121886000D02*
X132215700Y-122174000D01*
%TO.N,/MOTOR1_CTRL1*%
X127081200Y-112561000D02*
X125227000Y-112561000D01*
X130033800Y-111026000D02*
X128616200Y-111026000D01*
X128616200Y-111026000D02*
X127081200Y-112561000D01*
%TO.N,/CTRL3_INV*%
X131354600Y-117376000D02*
X131943300Y-116787300D01*
X131943300Y-116787300D02*
X138056000Y-116787300D01*
X138056000Y-116787300D02*
X138535300Y-116308000D01*
X130033800Y-117376000D02*
X131354600Y-117376000D01*
X138535300Y-116308000D02*
X140589000Y-116308000D01*
%TO.N,/CTRL2_INV*%
X125227000Y-115811000D02*
X125289800Y-115873800D01*
X130033800Y-114836000D02*
X128713000Y-114836000D01*
X127675200Y-115873800D02*
X128713000Y-114836000D01*
X125289800Y-115873800D02*
X127675200Y-115873800D01*
%TO.N,/MOTOR2_CTRL1*%
X131354600Y-115153200D02*
X131036800Y-115471000D01*
X131666400Y-115465000D02*
X136710700Y-115465000D01*
X131036800Y-115471000D02*
X129032800Y-115471000D01*
X131354600Y-113566000D02*
X131354600Y-115153200D01*
X130033800Y-113566000D02*
X131354600Y-113566000D01*
X136710700Y-115465000D02*
X137608600Y-114567100D01*
X141831400Y-109610700D02*
X155566600Y-109610700D01*
X155566600Y-109610700D02*
X155718100Y-109459200D01*
X131354600Y-115153200D02*
X131666400Y-115465000D01*
X129032800Y-115471000D02*
X128042800Y-116461000D01*
X128042800Y-116461000D02*
X125227000Y-116461000D01*
%TO.N,Net-(IC2-FB)*%
X139054600Y-106454000D02*
X138702100Y-106454000D01*
X139407000Y-106454000D02*
X139054600Y-106454000D01*
X137849700Y-105601600D02*
X138702100Y-106454000D01*
X141648200Y-104350100D02*
X140531800Y-103233700D01*
X140531800Y-102632000D02*
X140531800Y-103233700D01*
X136359000Y-105601600D02*
X137849700Y-105601600D01*
X139054600Y-106776200D02*
X140341000Y-108062600D01*
X140857000Y-108062600D02*
X141648200Y-107271400D01*
X139054600Y-106454000D02*
X139054600Y-106776200D01*
X141648200Y-107271400D02*
X141648200Y-104350100D01*
X140341000Y-108062600D02*
X140857000Y-108062600D01*
%TO.N,Net-(IC2-SW)*%
X139613100Y-101628600D02*
X139063400Y-102178300D01*
X147027000Y-101906000D02*
X146749600Y-101628600D01*
X140031900Y-104132000D02*
X140031900Y-103530300D01*
X146749600Y-101628600D02*
X139613100Y-101628600D01*
X139063400Y-102178300D02*
X139063400Y-103076500D01*
X139063400Y-103076500D02*
X139517200Y-103530300D01*
X139517200Y-103530300D02*
X140031900Y-103530300D01*
%TO.N,/Sense_-*%
X158380400Y-116305000D02*
X158380400Y-114831600D01*
X157011900Y-112900500D02*
X156477300Y-112365900D01*
X146421100Y-120400100D02*
X144915700Y-121905500D01*
X160442300Y-117682100D02*
X158624400Y-119500000D01*
X160442300Y-117102600D02*
X160442300Y-117682100D01*
X159462000Y-116742000D02*
X158817400Y-116742000D01*
X158380400Y-114831600D02*
X157011900Y-113463100D01*
X149769600Y-119500000D02*
X148869500Y-120400100D01*
X166568000Y-72374000D02*
X166052100Y-72889900D01*
X166052100Y-72889900D02*
X160438100Y-72889900D01*
X156477300Y-112365900D02*
X156158900Y-112365900D01*
X144915700Y-121905500D02*
X144915700Y-122174000D01*
X148869500Y-120400100D02*
X146421100Y-120400100D01*
X144915700Y-122174000D02*
X143764000Y-122174000D01*
X160081700Y-116742000D02*
X160442300Y-117102600D01*
X153885000Y-112121700D02*
X155914700Y-112121700D01*
X159462000Y-116742000D02*
X160081700Y-116742000D01*
X158624400Y-119500000D02*
X149769600Y-119500000D01*
X156158900Y-112365900D02*
X155914700Y-112121700D01*
X158817400Y-116742000D02*
X158380400Y-116305000D01*
X157011900Y-113463100D02*
X157011900Y-112900500D01*
%TO.N,/MOTOR2_CTRL2*%
X124050300Y-117111000D02*
X124050300Y-120880300D01*
X147574000Y-125109400D02*
X147574000Y-124336600D01*
X123700700Y-123562300D02*
X122966600Y-123562300D01*
X122966600Y-123562300D02*
X122256300Y-124272600D01*
X146817700Y-125865700D02*
X147574000Y-125109400D01*
X152772300Y-122442500D02*
X152772300Y-122174000D01*
X153924000Y-122174000D02*
X152772300Y-122174000D01*
X122256300Y-124272600D02*
X122256300Y-125196900D01*
X125227000Y-117111000D02*
X124050300Y-117111000D01*
X124634000Y-122629000D02*
X123700700Y-123562300D01*
X122256300Y-125196900D02*
X122925100Y-125865700D01*
X124634000Y-121464000D02*
X124634000Y-122629000D01*
X122925100Y-125865700D02*
X146817700Y-125865700D01*
X147574000Y-124336600D02*
X148466600Y-123444000D01*
X148466600Y-123444000D02*
X151770800Y-123444000D01*
X124050300Y-120880300D02*
X124634000Y-121464000D01*
X151770800Y-123444000D02*
X152772300Y-122442500D01*
%TO.N,/FAST_CHARGE_CTRL*%
X135597000Y-97292800D02*
X136330700Y-97292800D01*
X136330700Y-97292800D02*
X136600300Y-97562400D01*
X136600300Y-97562400D02*
X137042000Y-97562400D01*
%TO.N,/MOTOR2_B_OUT*%
X119203700Y-115161000D02*
X119203700Y-115811000D01*
X118615400Y-115811000D02*
X118027000Y-115811000D01*
X118615400Y-115161000D02*
X119203700Y-115161000D01*
X118615400Y-115161000D02*
X118027000Y-115161000D01*
X118615400Y-115811000D02*
X119203700Y-115811000D01*
%TO.N,/MOTOR1_CTRL2*%
X123444000Y-112517300D02*
X123444000Y-121022300D01*
X123444000Y-122174000D02*
X123444000Y-121022300D01*
X125227000Y-111911000D02*
X124050300Y-111911000D01*
X124050300Y-111911000D02*
X123444000Y-112517300D01*
%TO.N,/MOTOR3_B_OUT*%
X147789000Y-115658000D02*
X146763600Y-115658000D01*
X124595700Y-124426000D02*
X124595700Y-124714000D01*
X125459400Y-123562300D02*
X124595700Y-124426000D01*
X136970900Y-120427200D02*
X136970900Y-120427300D01*
X147789000Y-115008000D02*
X146612300Y-115008000D01*
X136257100Y-120427300D02*
X134874000Y-121810400D01*
X146612300Y-115506700D02*
X142079800Y-120039200D01*
X136970900Y-120427300D02*
X136257100Y-120427300D01*
X137358900Y-120039200D02*
X136970900Y-120427200D01*
X134874000Y-122591500D02*
X133903200Y-123562300D01*
X146612300Y-115506700D02*
X146612300Y-115008000D01*
X146763600Y-115658000D02*
X146612300Y-115506700D01*
X142079800Y-120039200D02*
X137358900Y-120039200D01*
X134874000Y-121810400D02*
X134874000Y-122591500D01*
X123444000Y-124714000D02*
X124595700Y-124714000D01*
X133903200Y-123562300D02*
X125459400Y-123562300D01*
%TO.N,/CTRL_EXT_LOAD2*%
X154139000Y-96369100D02*
X154345400Y-96575500D01*
X154139000Y-95275000D02*
X154139000Y-96369100D01*
%TO.N,/MOTOR1_A_OUT*%
X118948800Y-111911000D02*
X119203700Y-111656100D01*
X118948800Y-111911000D02*
X119203700Y-111911000D01*
X119203700Y-111911000D02*
X119424000Y-111911000D01*
X119203700Y-111656100D02*
X119203700Y-111261000D01*
X118615400Y-111911000D02*
X118948800Y-111911000D01*
X119424000Y-111911000D02*
X120904000Y-113391000D01*
X120904000Y-113391000D02*
X120904000Y-122174000D01*
X118027000Y-111911000D02*
X118615400Y-111911000D01*
X118027000Y-111261000D02*
X119203700Y-111261000D01*
%TO.N,/MOTOR3_A_OUT*%
X146612300Y-117608000D02*
X146612300Y-118258000D01*
X147789000Y-117608000D02*
X146612300Y-117608000D01*
X144744000Y-118258000D02*
X146612300Y-118258000D01*
X137608000Y-120640900D02*
X142361100Y-120640900D01*
X147789000Y-118258000D02*
X146612300Y-118258000D01*
X142361100Y-120640900D02*
X144744000Y-118258000D01*
%TO.N,/MOTOR4_B_OUT*%
X152882800Y-115087600D02*
X152153200Y-114358000D01*
X146612300Y-113708000D02*
X146612300Y-114358000D01*
X147200700Y-114358000D02*
X147789000Y-114358000D01*
X152153200Y-114358000D02*
X147789000Y-114358000D01*
X147789000Y-113708000D02*
X146612300Y-113708000D01*
X147200700Y-114358000D02*
X146612300Y-114358000D01*
%TO.N,/MOTOR4_A_OUT*%
X150681600Y-111758000D02*
X152426500Y-113502900D01*
X148965700Y-111758000D02*
X150681600Y-111758000D01*
X148883700Y-111658200D02*
X148883700Y-111676000D01*
X148965700Y-111576300D02*
X148907300Y-111634700D01*
X147789000Y-111758000D02*
X148965700Y-111758000D01*
X148965700Y-111108000D02*
X148965700Y-111576300D01*
X152426500Y-113502900D02*
X156410200Y-113502900D01*
X148883700Y-111676000D02*
X148965700Y-111758000D01*
X148907300Y-111634700D02*
X148907200Y-111634700D01*
X147789000Y-111108000D02*
X148965700Y-111108000D01*
X148907200Y-111634700D02*
X148883700Y-111658200D01*
%TO.N,/CTRL_EXT_LOAD1*%
X120584800Y-95558600D02*
X120966000Y-95939800D01*
X120966000Y-95939800D02*
X120966000Y-96140500D01*
X119803600Y-95558600D02*
X120584800Y-95558600D01*
%TO.N,/I2C1_SCL*%
X142375700Y-122174000D02*
X142375700Y-121909700D01*
X153132000Y-115689300D02*
X153379300Y-115442000D01*
X141224000Y-122174000D02*
X142375700Y-122174000D01*
X148890500Y-118871000D02*
X152072200Y-115689300D01*
X152072200Y-115689300D02*
X153132000Y-115689300D01*
X142375700Y-121909700D02*
X145414400Y-118871000D01*
X153379300Y-115442000D02*
X157187000Y-115442000D01*
X145414400Y-118871000D02*
X148890500Y-118871000D01*
%TO.N,/MOTOR2_A_OUT*%
X118027000Y-118411000D02*
X119203700Y-118411000D01*
X118027000Y-117761000D02*
X119203700Y-117761000D01*
X118027000Y-118411000D02*
X119203700Y-118411000D01*
X119203700Y-118411000D02*
X119203700Y-117761000D01*
%TO.N,/I2C1_SDA*%
X145565700Y-120241800D02*
X145809100Y-119998400D01*
X156184000Y-116092000D02*
X157187000Y-116092000D01*
X152438200Y-116091000D02*
X153298300Y-116091000D01*
X153396600Y-115992700D02*
X156084700Y-115992700D01*
X153298300Y-116091000D02*
X153396600Y-115992700D01*
X145809100Y-119998400D02*
X148530800Y-119998400D01*
X156084700Y-115992700D02*
X156184000Y-116092000D01*
X148530800Y-119998400D02*
X152438200Y-116091000D01*
%TO.N,/MOTOR4_CTRL2*%
X141807800Y-112365900D02*
X141765700Y-112408000D01*
X143604700Y-112365900D02*
X141807800Y-112365900D01*
X140589000Y-112408000D02*
X141765700Y-112408000D01*
%TO.N,/MOTOR1_B_OUT*%
X119727000Y-119058300D02*
X120078700Y-118706600D01*
X120078700Y-115386000D02*
X119203700Y-114511000D01*
X120078700Y-118706600D02*
X120078700Y-115386000D01*
X118027000Y-114511000D02*
X119203700Y-114511000D01*
X120904000Y-124714000D02*
X120904000Y-123562300D01*
X119727000Y-122673200D02*
X119727000Y-119058300D01*
X118615400Y-113861000D02*
X119203700Y-113861000D01*
X119203700Y-114511000D02*
X119203700Y-113861000D01*
X118615400Y-113861000D02*
X118027000Y-113861000D01*
X120616100Y-123562300D02*
X119727000Y-122673200D01*
X120904000Y-123562300D02*
X120616100Y-123562300D01*
%TO.N,/MOTOR3_CTRL2*%
X141765700Y-117608000D02*
X141765700Y-118668700D01*
X141198600Y-119235800D02*
X132326000Y-119235800D01*
X140589000Y-117608000D02*
X141765700Y-117608000D01*
X128524000Y-122174000D02*
X129675700Y-122174000D01*
X129675700Y-121886100D02*
X129675700Y-122174000D01*
X132326000Y-119235800D02*
X129675700Y-121886100D01*
X141765700Y-118668700D02*
X141198600Y-119235800D01*
%TO.N,Net-(Q2-D)*%
X143020100Y-94573100D02*
X143725000Y-94573100D01*
X143725000Y-95278000D02*
X143725000Y-94573100D01*
X138215500Y-94008000D02*
X142455000Y-94008000D01*
X142455000Y-94008000D02*
X143020100Y-94573100D01*
%TO.N,Net-(Q2-G)*%
X139262500Y-95786000D02*
X135597000Y-95786000D01*
X140090500Y-94958000D02*
X139262500Y-95786000D01*
%TO.N,Net-(U8-~{CHG})*%
X140653300Y-79479400D02*
X140931000Y-79201700D01*
X141355000Y-80920100D02*
X140653300Y-80920100D01*
X140931000Y-78496800D02*
X140931000Y-79201700D01*
X140653300Y-80920100D02*
X140653300Y-79479400D01*
%TO.N,Net-(U8-~{PGOOD})*%
X142604900Y-80170000D02*
X142604900Y-78994000D01*
X142604900Y-78994000D02*
X149860000Y-78994000D01*
%TO.N,Net-(U8-ILIM)*%
X140495200Y-82578000D02*
X137375000Y-82578000D01*
X140653300Y-82419900D02*
X140495200Y-82578000D01*
X141355000Y-82419900D02*
X140653300Y-82419900D01*
%TO.N,Net-(U8-TS)*%
X144355000Y-82419900D02*
X144355000Y-84280100D01*
X135597000Y-89436000D02*
X135597000Y-88731100D01*
X144355000Y-84280100D02*
X143902400Y-84732700D01*
X135647800Y-88680300D02*
X135597000Y-88731100D01*
X142614500Y-88680300D02*
X135647800Y-88680300D01*
%TO.N,Net-(U8-ISET)*%
X143300700Y-88578000D02*
X143725000Y-89002300D01*
X143196300Y-90412100D02*
X143725000Y-90412100D01*
X143725000Y-90059600D02*
X143725000Y-90412100D01*
X143604900Y-83170000D02*
X143604900Y-84179400D01*
X143725000Y-93771200D02*
X143725000Y-93066300D01*
X142971800Y-92313100D02*
X142971800Y-90636600D01*
X143725000Y-90059600D02*
X143725000Y-89707200D01*
X142971800Y-90636600D02*
X143196300Y-90412100D01*
X143300700Y-84483600D02*
X143300700Y-88578000D01*
X143604900Y-84179400D02*
X143300700Y-84483600D01*
X143725000Y-89707200D02*
X143725000Y-89002300D01*
X143725000Y-93066300D02*
X142971800Y-92313100D01*
%TO.N,Net-(U2-QOD)*%
X118110000Y-101600000D02*
X118814900Y-101600000D01*
X118814900Y-101600000D02*
X120966000Y-99448900D01*
X120966000Y-99448900D02*
X120966000Y-97915500D01*
%TO.N,Net-(U5-QOD)*%
X154139000Y-93500000D02*
X154139000Y-90169700D01*
X154139000Y-90169700D02*
X153885000Y-89915700D01*
X153885000Y-89182000D02*
X153885000Y-89915700D01*
%TO.N,Net-(U4-EN)*%
X154647000Y-106708000D02*
X154647000Y-107412900D01*
X158899900Y-107830000D02*
X158254100Y-108475800D01*
X159473000Y-107830000D02*
X158899900Y-107830000D01*
X156414800Y-108475800D02*
X155351900Y-107412900D01*
X158254100Y-108475800D02*
X156414800Y-108475800D01*
X155351900Y-107412900D02*
X154647000Y-107412900D01*
%TO.N,/VBUS*%
X123843900Y-75720000D02*
X123884700Y-75720000D01*
X125502200Y-75811800D02*
X123976500Y-75811800D01*
X131073900Y-74388500D02*
X131073900Y-75340200D01*
X126274100Y-74388500D02*
X125973800Y-74388500D01*
X133180100Y-75737200D02*
X132577300Y-75737200D01*
X130773900Y-74388500D02*
X131073900Y-74388500D01*
X123913900Y-72190900D02*
X123283700Y-72821100D01*
X123151000Y-75720000D02*
X123843900Y-75720000D01*
X133762000Y-75224500D02*
X133762000Y-72806500D01*
X131073900Y-75340200D02*
X132180300Y-75340200D01*
X133180100Y-75737200D02*
X133249300Y-75737200D01*
X123976500Y-75811800D02*
X123884700Y-75720000D01*
X123283700Y-75159800D02*
X123843900Y-75720000D01*
X132180300Y-75340200D02*
X132577300Y-75737200D01*
X125973800Y-74388500D02*
X125973800Y-75340200D01*
X133311000Y-75737200D02*
X133249300Y-75737200D01*
X133762000Y-72806500D02*
X133146400Y-72190900D01*
X125973800Y-75340200D02*
X125502200Y-75811800D01*
X123283700Y-72821100D02*
X123283700Y-75159800D01*
X133249300Y-75737200D02*
X133762000Y-75224500D01*
X133146400Y-72190900D02*
X123913900Y-72190900D01*
%TO.N,Net-(U1-VBUS)*%
X133311000Y-77244000D02*
X133311000Y-77948900D01*
X133311000Y-79263900D02*
X132536800Y-80038100D01*
X131485100Y-80038100D02*
X132536800Y-80038100D01*
X133311000Y-77948900D02*
X133311000Y-79263900D01*
%TO.N,/Sense_+*%
X158855600Y-117998400D02*
X155354000Y-117998400D01*
X150687500Y-81920100D02*
X144355000Y-81920100D01*
X159462000Y-117392000D02*
X158855600Y-117998400D01*
X151526300Y-82758900D02*
X150687500Y-81920100D01*
X155354000Y-117998400D02*
X155354000Y-116484100D01*
X153885000Y-118254300D02*
X153885000Y-117998400D01*
X144355000Y-81419900D02*
X144355000Y-81920100D01*
X155354000Y-117998400D02*
X153885000Y-117998400D01*
%TO.N,Net-(U1-DM)*%
X126536600Y-82038100D02*
X126536600Y-81038100D01*
X125484900Y-82038100D02*
X126536600Y-82038100D01*
X125484900Y-81038100D02*
X126536600Y-81038100D01*
%TO.N,/CC1*%
X130433400Y-81038100D02*
X130394200Y-80998900D01*
X130394200Y-77527700D02*
X129773900Y-76907400D01*
X130394200Y-80998900D02*
X130394200Y-77527700D01*
X129773900Y-76907400D02*
X129773900Y-74388500D01*
X131485100Y-81038100D02*
X130433400Y-81038100D01*
%TO.N,/CC2*%
X129925200Y-81530100D02*
X129925200Y-78268200D01*
X131484900Y-82038100D02*
X130433200Y-82038100D01*
X126773900Y-74388500D02*
X126773900Y-75340200D01*
X129925200Y-78268200D02*
X126997200Y-75340200D01*
X126997200Y-75340200D02*
X126773900Y-75340200D01*
X130433200Y-82038100D02*
X129925200Y-81530100D01*
%TD*%
M02*
