%TF.GenerationSoftware,KiCad,Pcbnew,9.0.0*%
%TF.CreationDate,2025-03-28T09:11:28+02:00*%
%TF.ProjectId,MM_PowerBoard_Draft,4d4d5f50-6f77-4657-9242-6f6172645f44,rev?*%
%TF.SameCoordinates,Original*%
%TF.FileFunction,Legend,Bot*%
%TF.FilePolarity,Positive*%
%FSLAX46Y46*%
G04 Gerber Fmt 4.6, Leading zero omitted, Abs format (unit mm)*
G04 Created by KiCad (PCBNEW 9.0.0) date 2025-03-28 09:11:28*
%MOMM*%
%LPD*%
G01*
G04 APERTURE LIST*
%ADD10C,0.150000*%
%ADD11C,0.120000*%
G04 APERTURE END LIST*
D10*
X160788819Y-123110666D02*
X161503104Y-123110666D01*
X161503104Y-123110666D02*
X161645961Y-123063047D01*
X161645961Y-123063047D02*
X161741200Y-122967809D01*
X161741200Y-122967809D02*
X161788819Y-122824952D01*
X161788819Y-122824952D02*
X161788819Y-122729714D01*
X160884057Y-123539238D02*
X160836438Y-123586857D01*
X160836438Y-123586857D02*
X160788819Y-123682095D01*
X160788819Y-123682095D02*
X160788819Y-123920190D01*
X160788819Y-123920190D02*
X160836438Y-124015428D01*
X160836438Y-124015428D02*
X160884057Y-124063047D01*
X160884057Y-124063047D02*
X160979295Y-124110666D01*
X160979295Y-124110666D02*
X161074533Y-124110666D01*
X161074533Y-124110666D02*
X161217390Y-124063047D01*
X161217390Y-124063047D02*
X161788819Y-123491619D01*
X161788819Y-123491619D02*
X161788819Y-124110666D01*
D11*
%TO.C,J2*%
X119574000Y-126044000D02*
X119574000Y-120844000D01*
X157734000Y-123444000D02*
X160334000Y-123444000D01*
X157734000Y-126044000D02*
X119574000Y-126044000D01*
X157734000Y-126044000D02*
X157734000Y-123444000D01*
X159004000Y-126044000D02*
X160334000Y-126044000D01*
X160334000Y-120844000D02*
X119574000Y-120844000D01*
X160334000Y-123444000D02*
X160334000Y-120844000D01*
X160334000Y-126044000D02*
X160334000Y-124714000D01*
%TD*%
M02*
