M48
; DRILL file {KiCad 9.0.0} date 2025-03-28T11:26:13+0200
; FORMAT={-:-/ absolute / inch / decimal}
; #@! TF.CreationDate,2025-03-28T11:26:13+02:00
; #@! TF.GenerationSoftware,Kicad,Pcbnew,9.0.0
; #@! TF.FileFunction,Plated,1,2,PTH
FMAT,2
INCH
; #@! TA.AperFunction,Plated,PTH,ViaDrill
T1C0.0118
; #@! TA.AperFunction,Plated,PTH,ComponentDrill
T2C0.0315
; #@! TA.AperFunction,Plated,PTH,ComponentDrill
T3C0.0394
; #@! TA.AperFunction,Plated,PTH,ComponentDrill
T4C0.0433
%
G90
G05
T1
X4.4125Y-3.7993
X4.628Y-3.7633
X4.7017Y-4.4402
X4.7019Y-4.6107
X4.7167Y-3.7621
X4.7425Y-4.2684
X4.7609Y-2.7931
X4.811Y-3.6517
X4.8143Y-3.82
X4.913Y-4.3461
X4.9847Y-4.5383
X4.9879Y-3.8032
X4.991Y-4.657
X5.0028Y-3.2971
X5.034Y-4.6181
X5.0665Y-3.0664
X5.1469Y-4.113
X5.1859Y-4.6632
X5.3245Y-3.1779
X5.3712Y-3.3021
X5.3759Y-3.5719
X5.3954Y-3.841
X5.4176Y-4.7496
X5.4177Y-4.5105
X5.423Y-4.0353
X5.4322Y-4.5675
X5.4414Y-3.3748
X5.4547Y-4.614
X5.4588Y-4.3897
X5.4707Y-4.1234
X5.4804Y-4.5023
X5.5322Y-3.9621
X5.5333Y-3.2194
X5.5368Y-3.3359
X5.5368Y-4.2296
X5.5476Y-3.6315
X5.5758Y-2.8308
X5.5804Y-3.0251
X5.5825Y-4.0286
X5.5839Y-4.3154
X5.6144Y-3.3107
X5.6147Y-3.4914
X5.6333Y-3.9194
X5.6537Y-4.4239
X5.6654Y-3.3359
X5.6782Y-2.9862
X5.6927Y-3.1469
X5.6927Y-4.113
X5.6927Y-4.2717
X5.6927Y-4.4627
X5.7165Y-3.5911
X5.7196Y-3.1858
X5.7309Y-4.7339
X5.763Y-4.6046
X5.8701Y-3.7274
X5.8737Y-4.4246
X5.8946Y-4.2897
X5.9656Y-3.2582
X5.9843Y-4.7491
X5.997Y-3.8666
X6.0143Y-3.7633
X6.0167Y-3.7245
X6.019Y-4.531
X6.0766Y-3.8022
X6.0872Y-3.6468
X6.1163Y-4.586
X6.1306Y-4.3094
X6.1411Y-4.5961
X6.1579Y-4.4686
X6.1605Y-4.4239
X6.2663Y-3.7245
X6.2839Y-3.5195
X6.3018Y-4.432
X6.3165Y-2.8697
X6.3253Y-4.5706
X6.3273Y-4.279
X6.5177Y-2.7306
T3
X4.76Y-4.81
X4.76Y-4.91
X4.86Y-4.81
X4.86Y-4.91
X4.96Y-4.81
X4.96Y-4.91
X5.06Y-4.81
X5.06Y-4.91
X5.16Y-4.81
X5.16Y-4.91
X5.26Y-4.81
X5.26Y-4.91
X5.36Y-4.81
X5.36Y-4.91
X5.46Y-4.81
X5.46Y-4.91
X5.56Y-4.81
X5.56Y-4.91
X5.66Y-4.81
X5.66Y-4.91
X5.76Y-4.81
X5.76Y-4.91
X5.86Y-4.81
X5.86Y-4.91
X5.96Y-4.81
X5.96Y-4.91
X6.06Y-4.81
X6.06Y-4.91
X6.16Y-4.81
X6.16Y-4.91
X6.26Y-4.81
X6.26Y-4.91
T2
G00X4.8897Y-2.7457
M15
G01X4.8897Y-2.7221
M16
G05
G00X4.8897Y-2.9142
M15
G01X4.8897Y-2.8827
M16
G05
G00X5.2303Y-2.7457
M15
G01X5.2303Y-2.7221
M16
G05
G00X5.2303Y-2.9142
M15
G01X5.2303Y-2.8827
M16
G05
T4
G00X5.4485Y-2.7375
M15
G01X5.4485Y-2.7847
M16
G05
G00X5.6335Y-2.7375
M15
G01X5.6335Y-2.7847
M16
G05
G00X5.8185Y-2.7375
M15
G01X5.8185Y-2.7847
M16
G05
M30
